Coordinates
version=1
nRows=7
nColumns=40
inDegrees=yes

Units are S.I. units (second, meters, Newtons, ...)
If the header above contains a line with 'inDegrees', this indicates whether rotational values are in degrees (yes) or radians (no).

endheader
time	pelvis_tilt	pelvis_list	pelvis_rotation	pelvis_tx	pelvis_ty	pelvis_tz	hip_flexion_r	hip_adduction_r	hip_rotation_r	knee_angle_r	knee_angle_r_beta	ankle_angle_r	subtalar_angle_r	mtp_angle_r	hip_flexion_l	hip_adduction_l	hip_rotation_l	knee_angle_l	knee_angle_l_beta	ankle_angle_l	subtalar_angle_l	mtp_angle_l	lumbar_extension	lumbar_bending	lumbar_rotation	arm_flex_r	arm_add_r	arm_rot_r	elbow_flex_r	pro_sup_r	wrist_flex_r	wrist_dev_r	arm_flex_l	arm_add_l	arm_rot_l	elbow_flex_l	pro_sup_l	wrist_flex_l	wrist_dev_l
      0.25000000	     -0.29059261	      9.01470409	    -89.87456135	      0.23431396	      0.93074703	     -0.89502636	     -7.91179129	      5.40741853	      0.49867819	      5.50552788	      0.09608959	     11.04193855	      0.00000000	      0.00000000	     34.97988020	      0.80443776	      1.89688396	      1.19994510	      0.02094299	      3.65281885	     -0.00000000	     -0.00000000	      3.41570242	      0.11608413	      1.76756262	      0.00000000	      0.00000000	     -0.00000000	      0.00000000	      0.00000000	     -0.00000000	     -0.00000000	      0.00000000	      0.00000000	     -0.00000000	      0.00000000	      0.00000000	      0.00000000	      0.00000000
      0.26000000	     -0.27646076	      9.14342766	    -89.88633663	      0.23496831	      0.92746038	     -0.87938074	     -8.54549231	      5.34718146	      0.48712549	      6.09080506	      0.10630460	     11.38592400	      0.00000000	      0.00000000	     35.37937323	      1.02951250	      2.21801100	      1.31797904	      0.02300307	      3.94445878	      0.00000000	      0.00000000	      3.56516354	      0.01926383	      1.78701745	      0.00000000	      0.00000000	      0.00000000	      0.00000000	      0.00000000	      0.00000000	      0.00000000	      0.00000000	      0.00000000	      0.00000000	      0.00000000	      0.00000000	      0.00000000	      0.00000000
      0.27000000	     -0.25381025	      9.25646607	    -89.89250083	      0.23564356	      0.92445699	     -0.86360947	     -9.11604271	      5.26554236	      0.39073994	      6.78901173	      0.11849061	     11.26227034	     -0.00000000	     -0.00000000	     35.84336479	      1.26473946	      2.47525002	      2.08699358	      0.03642491	      3.73435530	      0.00000000	     -0.00000000	      3.69864821	     -0.07943325	      1.67945257	      0.00000000	      0.00000000	     -0.00000000	      0.00000000	      0.00000000	     -0.00000000	      0.00000000	     -0.00000000	      0.00000000	      0.00000000	      0.00000000	      0.00000000	     -0.00000000	      0.00000000
      0.28000000	     -0.10385772	      9.31096737	    -89.89818283	      0.23635868	      0.92178153	     -0.84768353	     -9.48596548	      5.00153686	     -0.20820720	      8.03118914	      0.14017069	     11.66135455	      0.00000000	      0.00000000	     36.45013161	      1.59690711	      1.83375364	      3.70666573	      0.06469352	      3.63187472	      0.00000000	      0.00000000	      3.76226045	     -0.34158006	      1.59265437	     -0.00000000	      0.00000000	      0.00000000	      0.00000000	      0.00000000	     -0.00000000	      0.00000000	      0.00000000	      0.00000000	     -0.00000000	      0.00000000	      0.00000000	     -0.00000000	     -0.00000000
      0.29000000	      0.00214872	      9.38542750	    -89.90205533	      0.23700245	      0.91941178	     -0.83157103	     -9.77719094	      4.77487882	     -0.62524909	      9.33061010	      0.16284987	     11.40521100	      0.00000000	      0.00000000	     37.05218290	      1.85488802	      1.28252548	      5.60456771	      0.09781816	      2.88558378	     -0.00000000	     -0.00000000	      3.87148688	     -0.56820477	      1.53967827	      0.00000000	      0.00000000	      0.00000000	      0.00000000	      0.00000000	      0.00000000	     -0.00000000	      0.00000000	     -0.00000000	      0.00000000	      0.00000000	      0.00000000	      0.00000000	     -0.00000000
      0.30000000	      0.14750523	      9.47527591	    -89.90480809	      0.23764754	      0.91738822	     -0.81525949	     -9.90476286	      4.47786052	     -1.08602709	     10.87390703	      0.18978548	     10.88764964	      0.00000000	      0.00000000	     37.67023373	      2.11537728	      0.68242938	      7.76582185	      0.13553916	      1.76504596	      0.00000000	      0.00000000	      4.02687244	     -0.85290902	      1.43906941	      0.00000000	      0.00000000	      0.00000000	      0.00000000	      0.00000000	      0.00000000	      0.00000000	      0.00000000	      0.00000000	      0.00000000	      0.00000000	      0.00000000	      0.00000000	      0.00000000
      0.31000000	      0.30996022	      9.57983895	    -89.90706669	      0.23823091	      0.91574357	     -0.79878579	     -9.84118503	      4.12878790	     -1.55155495	     12.69212379	      0.22151935	     10.04035849	      0.00000000	      0.00000000	     38.26079633	      2.35343839	      0.15105203	     10.01327017	      0.17476453	      0.26154894	      0.00000000	      0.00000000	      4.21203894	     -1.17250547	      1.37003059	      0.00000000	      0.00000000	      0.00000000	      0.00000000	      0.00000000	      0.00000000	      0.00000000	      0.00000000	      0.00000000	      0.00000000	      0.00000000	      0.00000000	      0.00000000	      0.00000000
